<?xml version="1.0" standalone="no"?>
<!DOCTYPE svg PUBLIC "-//W3C//DTD SVG 20010904//EN"
 "http://www.w3.org/TR/2001/REC-SVG-20010904/DTD/svg10.dtd">
<svg version="1.0" xmlns="http://www.w3.org/2000/svg"
 width="138.000000pt" height="157.000000pt" viewBox="0 0 138.000000 157.000000"
 preserveAspectRatio="xMidYMid meet">

<g transform="translate(0.000000,157.000000) scale(0.100000,-0.100000)"
fill="#ffffff" stroke="none">
<path d="M765 1474 c-27 -14 -60 -34 -73 -45 -35 -27 -76 -25 -96 6 -9 14 -23
25 -31 25 -9 0 -50 -22 -93 -48 -81 -51 -143 -82 -161 -82 -6 0 -17 14 -26 30
-9 17 -20 30 -25 30 -16 0 -30 -36 -30 -76 0 -23 -6 -41 -18 -50 -13 -9 -16
-24 -14 -63 8 -140 0 -219 -26 -268 -21 -38 -14 -73 23 -114 19 -22 35 -43 35
-48 0 -5 -19 -25 -42 -44 -40 -34 -42 -36 -26 -54 10 -10 42 -27 74 -38 38
-13 59 -26 64 -41 5 -12 16 -26 24 -31 23 -13 -33 -115 -160 -292 -27 -38 -48
-106 -40 -127 7 -17 45 -18 82 -1 53 23 132 77 139 95 5 12 16 -8 36 -68 16
-46 29 -93 29 -103 0 -32 34 -15 54 28 10 22 32 73 48 113 30 75 84 169 121
209 11 12 17 29 14 37 -4 11 11 26 26 26 1 0 3 -14 4 -31 1 -17 20 -70 43
-118 22 -49 40 -103 40 -123 0 -19 6 -43 14 -53 12 -16 18 -17 39 -8 22 10 28
25 44 92 l18 80 61 -60 c65 -61 104 -76 104 -39 0 24 -72 196 -107 257 l-24
42 40 25 c33 21 45 24 66 16 47 -18 60 -12 83 35 12 25 29 45 37 45 12 0 15
14 15 68 0 59 3 72 23 90 13 12 29 22 36 22 10 0 12 19 9 78 -3 42 -8 85 -12
95 -7 15 -2 17 38 17 30 0 48 5 52 14 3 7 -12 51 -34 97 -21 46 -47 108 -58
138 -25 72 -61 101 -125 101 l-49 0 0 34 c0 45 -17 56 -95 66 -37 5 -74 15
-84 24 -23 21 -30 20 -86 -10z m91 -29 c16 -8 45 -15 64 -15 67 0 79 -8 82
-54 l3 -41 62 -5 c73 -6 83 -14 112 -93 12 -32 35 -87 51 -122 17 -35 30 -67
30 -70 0 -3 -20 -5 -45 -5 -54 0 -62 -12 -40 -63 8 -20 15 -55 15 -77 0 -34
-6 -46 -35 -71 -32 -29 -35 -35 -35 -89 0 -40 -5 -61 -16 -71 -8 -7 -24 -29
-34 -50 -19 -36 -19 -36 -58 -26 -37 10 -43 8 -99 -30 -70 -48 -115 -61 -149
-42 -20 10 -33 10 -77 -3 -82 -26 -117 -31 -130 -19 -7 5 -42 11 -77 13 l-65
4 33 14 c62 28 33 60 -54 60 -57 0 -63 2 -66 22 -2 18 -18 28 -72 49 -62 24
-67 28 -48 38 63 34 68 74 15 132 -35 39 -36 42 -24 72 32 78 48 205 32 258
-7 24 -8 45 -2 60 5 13 10 18 10 12 1 -7 7 -13 15 -13 12 0 13 12 9 58 -6 56
-6 57 14 40 11 -10 29 -18 42 -18 26 0 127 50 183 91 48 34 59 36 83 9 30 -33
84 -26 156 20 70 45 75 46 115 25z m-463 -910 c-27 -24 -28 -25 -9 -40 13 -10
42 -15 82 -15 36 0 66 -5 70 -11 4 -7 24 -9 51 -6 l45 5 -24 -27 c-43 -47 -93
-134 -132 -228 -21 -51 -40 -93 -42 -93 -5 0 -43 126 -46 155 -4 44 -32 43
-62 -1 -24 -35 -65 -66 -131 -98 -25 -12 -31 -12 -33 -1 -4 16 34 92 56 114
23 23 116 171 131 208 7 18 11 39 7 48 -4 12 2 15 30 15 l35 0 -28 -25z m363
-46 c7 -11 83 -8 114 5 10 4 22 -6 36 -31 32 -57 97 -213 91 -219 -3 -3 -33
26 -68 65 -34 39 -65 68 -69 66 -4 -3 -17 -47 -29 -100 -23 -98 -41 -123 -41
-57 0 22 -16 71 -40 122 -22 47 -40 92 -40 101 0 8 -5 20 -12 27 -9 9 -6 14
13 21 32 13 37 13 45 0z"/>
<path d="M503 1342 c-121 -50 -170 -118 -179 -249 -5 -67 -2 -90 20 -160 44
-135 143 -226 309 -284 90 -32 120 -34 199 -18 47 10 62 20 130 88 67 68 79
85 97 145 12 38 21 93 21 123 0 118 -121 254 -295 332 -57 26 -69 28 -180 35
-62 4 -89 1 -122 -12z m177 -22 c152 -24 293 -118 363 -242 30 -53 34 -97 13
-173 -18 -70 -31 -91 -95 -159 -67 -70 -89 -82 -161 -90 -102 -12 -276 66
-360 162 -57 64 -94 182 -85 272 11 116 55 176 162 219 56 23 75 24 163 11z"/>
<path d="M460 1072 c-15 -12 -24 -33 -27 -65 -5 -44 -3 -49 35 -87 36 -36 45
-40 88 -40 27 1 73 9 101 19 l53 18 57 -28 c87 -43 208 -36 233 11 15 28 12
87 -5 120 -17 32 -61 60 -96 60 -36 0 -142 -41 -169 -66 l-25 -22 -17 23 c-10
12 -41 35 -70 49 -62 31 -126 34 -158 8z m162 -61 c25 -16 49 -34 52 -40 8
-13 -84 -41 -136 -41 -32 0 -41 5 -50 26 -14 30 -4 53 33 71 35 19 50 16 101
-16z m323 -1 c8 -7 15 -19 15 -27 0 -24 -56 -73 -84 -73 -27 0 -116 27 -129
40 -5 4 18 24 50 44 48 31 65 36 96 33 21 -3 44 -11 52 -17z"/>
</g>
</svg>
