<?xml version="1.0" standalone="no"?>
<!DOCTYPE svg PUBLIC "-//W3C//DTD SVG 20010904//EN"
 "http://www.w3.org/TR/2001/REC-SVG-20010904/DTD/svg10.dtd">
<svg version="1.0" xmlns="http://www.w3.org/2000/svg"
 width="517.000000pt" height="355.000000pt" viewBox="0 0 517.000000 355.000000"
 preserveAspectRatio="xMidYMid meet">

<g transform="translate(0.000000,355.000000) scale(0.100000,-0.100000)"
fill="#ffffff" stroke="none">
<path d="M3174 3468 c-51 -55 -126 -118 -142 -118 -34 0 -82 -36 -138 -105
-85 -105 -130 -131 -254 -150 -25 -4 -58 -13 -75 -20 -16 -7 -52 -21 -79 -31
-27 -11 -66 -36 -86 -56 -39 -39 -52 -62 -167 -286 -78 -152 -133 -240 -180
-284 -53 -50 -169 -97 -343 -139 -61 -14 -187 -82 -267 -144 -28 -22 -68 -51
-88 -65 -93 -64 -134 -102 -159 -147 -40 -70 -52 -124 -39 -167 11 -34 9 -37
-24 -67 -20 -17 -54 -39 -77 -50 -23 -10 -48 -23 -56 -28 -8 -6 -49 -26 -90
-45 -101 -47 -210 -122 -253 -173 -61 -74 -70 -178 -19 -235 12 -14 12 -20 2
-33 -7 -8 -16 -15 -21 -15 -19 0 -128 -73 -160 -107 -48 -52 -62 -78 -87 -152
-29 -85 -29 -199 -2 -256 11 -22 19 -44 20 -49 1 -24 85 -106 132 -129 64 -31
142 -57 168 -57 11 0 28 -4 38 -9 54 -27 154 -50 317 -71 39 -5 102 -16 140
-24 39 -8 98 -20 132 -26 35 -7 153 -13 270 -14 171 -1 217 2 258 16 114 39
196 59 280 69 112 14 422 8 450 -8 11 -7 58 -29 105 -49 47 -20 131 -61 186
-90 131 -69 222 -94 339 -94 49 0 107 5 128 11 21 6 73 17 115 24 42 8 115 23
162 33 47 11 117 23 155 27 39 4 92 13 119 21 27 8 62 14 76 14 15 0 38 8 51
19 13 10 42 24 64 31 22 7 45 17 51 22 7 5 38 13 69 18 68 11 79 19 111 82 34
67 32 139 -7 248 -17 47 -37 105 -45 129 -7 24 -29 71 -48 105 -19 34 -48 87
-65 119 -41 76 -123 184 -168 222 -111 92 -186 168 -259 263 -45 59 -114 148
-153 197 -80 102 -114 154 -156 240 -24 50 -29 75 -33 155 l-4 95 46 89 c76
148 63 216 -81 424 -157 228 -159 231 -172 437 -9 154 -7 164 60 242 51 59 50
155 -1 161 -16 1 -33 -6 -46 -20z m-103 -220 c-4 -13 -3 -96 4 -188 11 -154
14 -170 44 -230 46 -94 63 -121 102 -171 48 -60 123 -177 139 -216 22 -58 9
-139 -36 -213 -34 -58 -39 -74 -42 -142 -2 -42 1 -99 7 -126 13 -63 70 -181
119 -249 180 -251 329 -432 413 -505 147 -127 200 -193 292 -368 83 -157 127
-286 127 -373 0 -79 -9 -93 -67 -101 -27 -3 -64 -14 -83 -25 -19 -10 -60 -26
-90 -35 -30 -10 -64 -21 -75 -26 -43 -18 -64 -22 -160 -35 -91 -12 -130 -20
-275 -53 -186 -43 -331 -53 -428 -28 -33 9 -120 47 -194 84 -73 37 -153 76
-178 87 -25 10 -65 28 -90 39 -42 19 -63 21 -275 20 -218 0 -235 -2 -325 -27
-235 -66 -241 -67 -349 -66 -123 0 -316 15 -381 28 -25 5 -92 16 -150 25 -206
33 -277 48 -395 83 -196 58 -226 76 -264 166 -43 99 -18 263 49 332 17 18 72
56 122 84 100 57 92 57 173 7 72 -45 225 -116 249 -116 8 0 17 -4 20 -9 3 -5
18 -12 33 -16 26 -6 42 -12 118 -45 17 -8 84 -15 155 -18 103 -3 139 0 205 16
44 11 134 30 200 41 125 22 278 55 331 71 44 14 96 12 209 -11 249 -49 277
-51 475 -39 154 10 200 17 276 41 125 40 194 39 258 -2 51 -32 68 -32 85 -1
15 28 -19 68 -83 98 -72 33 -151 32 -263 -5 -73 -23 -119 -31 -268 -41 -186
-13 -242 -9 -405 25 -113 23 -185 35 -217 35 -16 0 -93 -16 -169 -34 -77 -19
-185 -42 -241 -50 -56 -8 -138 -24 -182 -36 -55 -14 -112 -20 -186 -20 -98 0
-116 3 -219 39 -62 21 -137 50 -167 64 -124 57 -146 68 -181 90 -20 12 -54 33
-76 45 -84 51 -94 137 -24 204 51 49 173 126 246 155 63 26 172 88 217 124
l27 21 74 -35 c41 -20 108 -43 149 -52 69 -15 98 -20 272 -45 37 -6 154 -10
260 -10 210 0 294 11 532 70 185 45 198 50 368 141 39 21 50 41 33 64 -19 26
-68 23 -113 -7 -54 -37 -139 -74 -203 -89 -30 -6 -86 -21 -125 -31 -194 -51
-274 -60 -523 -55 -256 5 -368 15 -493 47 -139 36 -219 89 -219 144 1 44 32
108 66 134 157 121 338 242 362 242 7 0 20 4 30 9 21 12 117 41 133 41 6 0 53
16 103 36 166 66 241 146 361 384 116 231 148 283 191 307 21 13 49 23 62 23
12 0 39 9 59 20 21 11 46 20 57 20 39 0 153 41 189 67 20 16 65 63 101 105 37
43 75 78 88 81 13 2 26 5 30 6 4 0 4 -9 -1 -21z"/>
<path d="M3588 3463 c-23 -28 -79 -182 -91 -250 -10 -57 -9 -66 18 -135 16
-40 32 -77 37 -82 4 -6 8 -48 8 -95 1 -60 7 -103 21 -141 11 -30 29 -86 40
-125 51 -177 65 -211 106 -262 24 -29 43 -57 43 -62 0 -16 41 -40 56 -34 45
17 35 75 -23 135 -33 34 -73 121 -73 159 0 17 -22 89 -59 191 -14 39 -21 82
-21 133 0 63 -6 90 -35 162 -19 48 -35 101 -35 119 0 40 35 154 66 217 18 37
22 53 14 68 -13 24 -52 25 -72 2z"/>
<path d="M2305 3413 c-19 -27 -57 -93 -86 -148 -79 -152 -109 -184 -205 -215
-80 -26 -207 -105 -263 -163 -63 -66 -74 -88 -66 -129 9 -41 39 -54 65 -28 11
11 20 28 20 39 0 20 81 104 121 125 13 7 44 24 69 38 25 15 65 32 90 39 100
29 158 92 255 274 26 50 61 109 77 131 25 35 28 45 19 63 -20 37 -57 27 -96
-26z"/>
<path d="M1524 2791 c-37 -22 -102 -104 -110 -138 -5 -20 -11 -23 -38 -18 -23
5 -45 -1 -85 -22 -44 -23 -57 -35 -68 -68 -8 -22 -12 -48 -9 -58 3 -12 -8 -30
-33 -53 -44 -39 -67 -103 -58 -162 8 -46 55 -92 96 -92 76 0 191 89 191 148 0
25 5 29 44 40 51 13 126 78 126 109 0 10 -7 28 -15 39 -23 30 -18 40 25 53 46
14 70 43 70 86 0 36 -25 122 -41 141 -16 20 -59 17 -95 -5z m46 -116 c0 -17
-8 -26 -32 -34 -17 -6 -33 -9 -36 -6 -8 8 49 76 59 70 5 -4 9 -17 9 -30z
m-144 -149 c65 -30 72 -41 35 -61 -36 -18 -73 -19 -104 -3 -12 6 -29 14 -37
18 -26 12 -23 38 7 54 37 20 39 20 99 -8z m-122 -139 c29 -21 17 -67 -23 -94
-51 -34 -71 -31 -71 13 0 27 7 43 31 65 35 33 39 34 63 16z"/>
<path d="M4008 2351 c-68 -23 -130 -71 -179 -138 -24 -32 -74 -90 -111 -130
-85 -91 -92 -120 -52 -200 37 -73 58 -87 84 -55 18 22 19 26 4 60 -32 73 -31
79 28 140 31 32 74 83 97 115 48 66 121 123 168 132 39 7 66 40 53 65 -14 26
-39 29 -92 11z"/>
<path d="M4060 2112 c-70 -35 -84 -73 -53 -143 18 -40 19 -48 6 -84 -24 -69 5
-135 58 -135 12 0 15 -7 11 -25 -6 -36 16 -110 42 -133 32 -29 62 -35 117 -22
85 21 99 68 50 165 l-29 57 20 49 c20 46 20 50 3 75 -9 15 -26 29 -36 31 -15
4 -19 15 -19 48 0 33 -8 52 -35 89 -20 25 -40 46 -45 46 -4 0 -14 2 -22 5 -7
3 -38 -8 -68 -23z m78 -105 c3 -25 0 -28 -19 -25 -30 4 -49 35 -29 48 25 16
45 7 48 -23z m60 -132 c12 -12 -18 -27 -62 -32 -49 -6 -58 4 -29 32 12 12 26
15 51 11 19 -3 37 -8 40 -11z m18 -177 c17 -32 12 -48 -16 -48 -21 0 -30 19
-30 67 0 31 2 34 16 22 8 -7 22 -25 30 -41z"/>
</g>
</svg>
